<?xml version="1.0" standalone="no"?>
<!DOCTYPE svg PUBLIC "-//W3C//DTD SVG 20010904//EN"
 "http://www.w3.org/TR/2001/REC-SVG-20010904/DTD/svg10.dtd">
<svg version="1.0" xmlns="http://www.w3.org/2000/svg"
 width="106.000000pt" height="106.000000pt" viewBox="0 0 106.000000 106.000000"
 preserveAspectRatio="xMidYMid meet">
<metadata>
Created by potrace 1.11, written by Peter Selinger 2001-2013
</metadata>
<g transform="translate(0.000000,106.000000) scale(0.100000,-0.100000)"
fill="#000000" stroke="none">
<path d="M456 1013 c-30 -8 -95 -51 -123 -81 -156 -171 -29 -449 203 -445 247
4 358 295 178 465 -45 42 -106 65 -177 65 -34 1 -71 -1 -81 -4z m4 -190 c-17
-19 -30 -45 -30 -61 0 -25 -3 -24 -59 32 -56 56 -59 60 -45 81 l14 22 75 -20
74 -20 -29 -34z m285 46 c6 -17 -4 -33 -46 -75 l-53 -53 -12 35 c-7 19 -20 44
-30 55 -21 23 -22 22 46 41 76 22 88 21 95 -3z m-152 -70 c34 -42 13 -105 -39
-115 -44 -8 -73 3 -85 33 -16 42 -10 70 18 93 33 26 79 21 106 -11z m-37 -145
l42 5 -19 -67 c-10 -37 -19 -70 -19 -73 0 -3 -12 -6 -27 -5 -24 1 -29 8 -45
61 -25 83 -24 99 3 84 13 -6 40 -9 65 -5z"/>
<path d="M190 226 c0 -211 2 -219 41 -209 12 4 15 20 14 89 0 61 3 84 12 85 7
1 38 1 68 1 30 0 60 0 65 -1 6 -1 10 -36 10 -85 0 -87 7 -102 41 -85 12 6 15
24 14 88 l-2 81 29 1 c15 1 34 2 41 3 6 0 12 12 12 26 0 25 -2 26 -61 29 -20
1 -21 6 -20 91 l2 90 -28 0 -27 0 -3 -91 -3 -91 -67 0 c-36 0 -70 2 -75 5 -5
3 -8 44 -7 91 l2 86 -29 0 -29 0 0 -204z"/>
<path d="M557 393 c3 -21 18 -61 33 -89 l29 -52 -21 -18 c-49 -45 -108 -190
-86 -212 21 -21 43 0 60 57 11 37 32 74 58 104 40 45 42 46 65 31 30 -20 67
-77 90 -139 23 -62 18 -56 50 -59 24 -3 26 -1 19 28 -10 51 -46 127 -80 172
-29 37 -31 44 -18 55 22 18 51 79 59 122 7 36 6 37 -23 37 -26 0 -30 -4 -35
-38 -7 -42 -51 -102 -76 -102 -28 0 -67 70 -70 128 -1 6 -14 12 -30 12 -27 0
-29 -2 -24 -37z"/>
</g>
</svg>
